<mxfile host="app.diagrams.net" agent="Mozilla/5.0 (Macintosh; Intel Mac OS X 10_15_7) AppleWebKit/537.36 (KHTML, like Gecko) Chrome/133.0.0.0 Safari/537.36" version="26.0.16">
  <diagram name="Page-1" id="gtFMIL0vCVhz1ZIX3VAr">
    <mxGraphModel dx="951" dy="593" grid="1" gridSize="10" guides="1" tooltips="1" connect="1" arrows="1" fold="1" page="1" pageScale="1" pageWidth="850" pageHeight="1100" math="0" shadow="0">
      <root>
        <mxCell id="0" />
        <mxCell id="1" parent="0" />
        <mxCell id="6zocnoXHrxWYXSwQewhK-1" value="DSO Shapeshifter implementation" style="rounded=1;whiteSpace=wrap;html=1;" vertex="1" parent="1">
          <mxGeometry x="120" y="440" width="120" height="60" as="geometry" />
        </mxCell>
        <mxCell id="6zocnoXHrxWYXSwQewhK-2" value="AGR Shapeshifter implementation" style="rounded=1;whiteSpace=wrap;html=1;" vertex="1" parent="1">
          <mxGeometry x="480" y="440" width="120" height="60" as="geometry" />
        </mxCell>
        <mxCell id="6zocnoXHrxWYXSwQewhK-3" value="DSO OAuth provider" style="rounded=1;whiteSpace=wrap;html=1;" vertex="1" parent="1">
          <mxGeometry x="120" y="300" width="120" height="60" as="geometry" />
        </mxCell>
        <mxCell id="6zocnoXHrxWYXSwQewhK-7" value="" style="endArrow=classic;html=1;rounded=0;exitX=0.5;exitY=0;exitDx=0;exitDy=0;entryX=0.5;entryY=1;entryDx=0;entryDy=0;" edge="1" parent="1">
          <mxGeometry width="50" height="50" relative="1" as="geometry">
            <mxPoint x="179.74" y="440" as="sourcePoint" />
            <mxPoint x="179.74" y="360" as="targetPoint" />
          </mxGeometry>
        </mxCell>
        <mxCell id="6zocnoXHrxWYXSwQewhK-8" value="Verify provided token" style="edgeLabel;html=1;align=center;verticalAlign=middle;resizable=0;points=[];" vertex="1" connectable="0" parent="6zocnoXHrxWYXSwQewhK-7">
          <mxGeometry x="-0.2408" y="-2" relative="1" as="geometry">
            <mxPoint x="-62" y="-9" as="offset" />
          </mxGeometry>
        </mxCell>
        <mxCell id="6zocnoXHrxWYXSwQewhK-11" value="" style="endArrow=classic;html=1;rounded=0;exitX=0;exitY=0;exitDx=0;exitDy=0;entryX=1;entryY=1;entryDx=0;entryDy=0;" edge="1" parent="1" source="6zocnoXHrxWYXSwQewhK-2" target="6zocnoXHrxWYXSwQewhK-3">
          <mxGeometry width="50" height="50" relative="1" as="geometry">
            <mxPoint x="420" y="420" as="sourcePoint" />
            <mxPoint x="470" y="370" as="targetPoint" />
          </mxGeometry>
        </mxCell>
        <mxCell id="6zocnoXHrxWYXSwQewhK-14" value="Request token" style="edgeLabel;html=1;align=center;verticalAlign=middle;resizable=0;points=[];" vertex="1" connectable="0" parent="6zocnoXHrxWYXSwQewhK-11">
          <mxGeometry x="-0.0574" relative="1" as="geometry">
            <mxPoint x="3" y="-22" as="offset" />
          </mxGeometry>
        </mxCell>
        <mxCell id="6zocnoXHrxWYXSwQewhK-15" value="" style="endArrow=classic;html=1;rounded=0;exitX=1;exitY=0.25;exitDx=0;exitDy=0;entryX=0;entryY=0.25;entryDx=0;entryDy=0;" edge="1" parent="1">
          <mxGeometry width="50" height="50" relative="1" as="geometry">
            <mxPoint x="239.99999999999977" y="460" as="sourcePoint" />
            <mxPoint x="480.0000000000002" y="460" as="targetPoint" />
          </mxGeometry>
        </mxCell>
        <mxCell id="6zocnoXHrxWYXSwQewhK-18" value="FlexMessage communication&lt;br&gt;without OAuth" style="edgeLabel;html=1;align=center;verticalAlign=middle;resizable=0;points=[];" vertex="1" connectable="0" parent="6zocnoXHrxWYXSwQewhK-15">
          <mxGeometry x="-0.0303" y="-2" relative="1" as="geometry">
            <mxPoint x="-4" y="-17" as="offset" />
          </mxGeometry>
        </mxCell>
        <mxCell id="6zocnoXHrxWYXSwQewhK-16" value="" style="endArrow=classic;html=1;rounded=0;exitX=0;exitY=0.75;exitDx=0;exitDy=0;entryX=1;entryY=0.75;entryDx=0;entryDy=0;" edge="1" parent="1">
          <mxGeometry width="50" height="50" relative="1" as="geometry">
            <mxPoint x="480.0000000000002" y="480" as="sourcePoint" />
            <mxPoint x="239.99999999999977" y="480" as="targetPoint" />
          </mxGeometry>
        </mxCell>
        <mxCell id="6zocnoXHrxWYXSwQewhK-17" value="FlexMessage communication&lt;br&gt;including token in header" style="edgeLabel;html=1;align=center;verticalAlign=middle;resizable=0;points=[];" vertex="1" connectable="0" parent="6zocnoXHrxWYXSwQewhK-16">
          <mxGeometry x="-0.0443" y="-1" relative="1" as="geometry">
            <mxPoint x="-5" y="16" as="offset" />
          </mxGeometry>
        </mxCell>
      </root>
    </mxGraphModel>
  </diagram>
</mxfile>
